<svg width="12" height="12" viewBox="0 0 12 12" fill="none" xmlns="http://www.w3.org/2000/svg">
<path d="M5.99995 0C9.29551 0 12 2.70447 12 6C12 8.81223 10.0267 11.3668 7.40621 12V10.015C7.66586 10.0718 7.90481 10.0735 8.16913 9.99554C8.52372 9.8909 8.81183 9.65469 9.0257 9.29453C9.16203 9.06454 9.40364 8.81516 9.65568 8.83347L9.71748 8.13309C9.17246 8.0864 8.70096 8.46515 8.42108 8.93536C8.29676 9.14447 8.15366 9.26706 7.97 9.32126C7.79248 9.37354 7.60186 9.34845 7.37976 9.26999C7.324 8.82532 7.12029 8.65887 6.96639 8.4245V8.42413C8.52921 8.19104 9.15205 7.36194 9.39924 6.70752C9.72682 5.83859 9.55104 4.75305 8.97178 4.06705C8.96052 4.05368 8.94019 4.01871 8.94807 3.99426C9.21366 3.19199 8.89002 2.52832 8.87812 2.45792C8.5716 2.54855 8.52179 2.36673 7.54666 2.95917L7.37811 3.06042C7.30761 3.10245 7.32977 3.07846 7.25927 3.07315C6.85213 2.96255 6.42293 2.90149 6.00005 2.896C5.57396 2.90149 5.1475 2.96255 4.72352 3.07764L4.66895 3.08313C4.67371 3.0824 4.65412 3.07965 4.62125 3.06006C3.40313 2.32224 3.4469 2.56339 3.12023 2.45718C3.10842 2.52768 2.78908 3.20215 3.05184 3.99426C3.08727 4.10339 1.99577 5.10287 2.60076 6.70724C2.84795 7.36194 3.4707 8.19104 5.03352 8.42413V8.4245C4.8332 8.72983 4.5925 8.89224 4.59379 9.52213V12C1.97325 11.3668 6.98492e-10 8.81223 6.98492e-10 6C-9.15469e-05 2.70447 2.7044 0 5.99995 0V0Z" fill="white"/>
</svg>
