<svg width="16" height="16" viewBox="0 0 16 16" fill="none" xmlns="http://www.w3.org/2000/svg">
<path d="M7.99988 0C12.3939 0 15.9999 3.60596 15.9999 8C15.9999 11.7496 13.3688 15.1558 9.87488 16V13.3533C10.2211 13.4291 10.5397 13.4313 10.8921 13.3274C11.3649 13.1879 11.749 12.8729 12.0342 12.3927C12.2159 12.0861 12.5381 11.7535 12.8741 11.778L12.9565 10.8441C12.2299 10.7819 11.6012 11.2869 11.228 11.9138C11.0623 12.1926 10.8715 12.3561 10.6266 12.4283C10.3899 12.498 10.1357 12.4646 9.8396 12.36C9.76526 11.7671 9.49365 11.5452 9.28845 11.2327V11.2322C11.3722 10.9214 12.2026 9.81592 12.5322 8.94336C12.969 7.78479 12.7346 6.3374 11.9623 5.42273C11.9473 5.40491 11.9202 5.35828 11.9307 5.32568C12.2848 4.25598 11.8533 3.37109 11.8374 3.27722C11.4287 3.39807 11.3623 3.15564 10.0621 3.94556L9.8374 4.08057C9.74341 4.1366 9.77295 4.10461 9.67896 4.09753C9.13611 3.95007 8.56384 3.86865 8 3.86133C7.43188 3.86865 6.86328 3.95007 6.29797 4.10352L6.22522 4.11084C6.23157 4.10986 6.20544 4.1062 6.16162 4.08008C4.53748 3.09631 4.59583 3.41785 4.16028 3.27625C4.14453 3.37024 3.71875 4.26953 4.06909 5.32568C4.11633 5.47119 2.66101 6.80383 3.46765 8.94299C3.79724 9.81592 4.62756 10.9214 6.7113 11.2322V11.2327C6.44421 11.6398 6.12329 11.8563 6.125 12.6962V16C2.63098 15.1558 0 11.7496 0 8C-0.000122062 3.60596 3.60583 0 7.99988 0V0Z" fill="white"/>
</svg>
