<svg width="14" height="10" viewBox="0 0 14 10" fill="none" xmlns="http://www.w3.org/2000/svg">
<path d="M8.6767 6.9982C9.1046 7.70108 9.66131 8.21772 10.6459 8.21772C11.4731 8.21772 12.0014 7.80183 12.0014 7.22718C12.0014 6.53855 11.4586 6.29465 10.5481 5.89403L10.0491 5.67862C8.60859 5.06123 7.65163 4.2878 7.65163 2.65274C7.65163 1.14658 8.79236 0 10.5751 0C11.8443 0 12.7568 0.444384 13.4143 1.60792L11.8598 2.61203C11.5176 1.99464 11.1483 1.75142 10.5751 1.75142C9.99041 1.75142 9.61984 2.12456 9.61984 2.61203C9.61984 3.21449 9.99075 3.45839 10.8472 3.83154L11.3463 4.04661C13.0424 4.77832 14 5.52427 14 7.2014C14 9.00946 12.5882 10 10.6921 10C8.83822 10 7.6405 9.11123 7.05446 7.94634L8.6767 6.9982ZM1.62494 7.17222C1.93853 7.73195 2.2238 8.20516 2.90966 8.20516C3.5655 8.20516 3.97924 7.94701 3.97924 6.94325V0.114657H5.97543V6.97039C5.97543 9.04983 4.76355 9.99627 2.99463 9.99627C1.39632 9.99627 0.470724 9.16415 0 8.16191L1.62494 7.17222Z" fill="white"/>
</svg>
