<svg width="44" height="15" viewBox="0 0 44 15" fill="none" xmlns="http://www.w3.org/2000/svg">
<path d="M1.296 14C1.164 14 1.05 13.952 0.954 13.856C0.858 13.76 0.81 13.646 0.81 13.514V1.706C0.81 1.574 0.858 1.46 0.954 1.364C1.05 1.268 1.164 1.22 1.296 1.22H4.446C4.578 1.22 4.692 1.268 4.788 1.364C4.884 1.46 4.932 1.574 4.932 1.706V7.538L6.516 4.946C6.636 4.742 6.81 4.64 7.038 4.64H10.674C10.794 4.64 10.896 4.682 10.98 4.766C11.064 4.85 11.106 4.952 11.106 5.072C11.106 5.156 11.076 5.246 11.016 5.342L8.55 8.852L11.466 13.334C11.514 13.406 11.538 13.484 11.538 13.568C11.538 13.688 11.496 13.79 11.412 13.874C11.328 13.958 11.226 14 11.106 14H7.326C7.086 14 6.9 13.898 6.768 13.694L4.932 10.634V13.514C4.932 13.646 4.884 13.76 4.788 13.856C4.692 13.952 4.578 14 4.446 14H1.296ZM12.9524 3.65C12.8204 3.65 12.7064 3.602 12.6104 3.506C12.5144 3.41 12.4664 3.296 12.4664 3.164V0.985999C12.4664 0.853999 12.5144 0.739999 12.6104 0.643999C12.7064 0.547999 12.8204 0.499999 12.9524 0.499999H15.9944C16.1264 0.499999 16.2404 0.547999 16.3364 0.643999C16.4324 0.739999 16.4804 0.853999 16.4804 0.985999V3.164C16.4804 3.296 16.4324 3.41 16.3364 3.506C16.2404 3.602 16.1264 3.65 15.9944 3.65H12.9524ZM12.8624 14C12.7304 14 12.6164 13.952 12.5204 13.856C12.4244 13.76 12.3764 13.646 12.3764 13.514V5.126C12.3764 4.994 12.4244 4.88 12.5204 4.784C12.6164 4.688 12.7304 4.64 12.8624 4.64H16.0844C16.2164 4.64 16.3304 4.688 16.4264 4.784C16.5224 4.88 16.5704 4.994 16.5704 5.126V13.514C16.5704 13.646 16.5224 13.76 16.4264 13.856C16.3304 13.952 16.2164 14 16.0844 14H12.8624ZM23.9908 14C22.5748 14 21.4708 13.706 20.6788 13.118C19.8868 12.518 19.4908 11.522 19.4908 10.13V7.79H18.0688C17.9368 7.79 17.8228 7.742 17.7268 7.646C17.6308 7.55 17.5828 7.436 17.5828 7.304V5.126C17.5828 4.994 17.6308 4.88 17.7268 4.784C17.8228 4.688 17.9368 4.64 18.0688 4.64H19.4908V1.706C19.4908 1.574 19.5388 1.46 19.6348 1.364C19.7308 1.268 19.8448 1.22 19.9768 1.22H23.1268C23.2588 1.22 23.3728 1.268 23.4688 1.364C23.5648 1.46 23.6128 1.574 23.6128 1.706V4.64H25.8808C26.0128 4.64 26.1268 4.688 26.2228 4.784C26.3188 4.88 26.3668 4.994 26.3668 5.126V7.304C26.3668 7.436 26.3188 7.55 26.2228 7.646C26.1268 7.742 26.0128 7.79 25.8808 7.79H23.6128V9.77C23.6128 10.37 23.8708 10.67 24.3868 10.67H26.0248C26.1568 10.67 26.2708 10.718 26.3668 10.814C26.4628 10.91 26.5108 11.024 26.5108 11.156V13.514C26.5108 13.646 26.4628 13.76 26.3668 13.856C26.2708 13.952 26.1568 14 26.0248 14H23.9908ZM32.6168 14.18C30.9848 14.18 29.7188 13.784 28.8188 12.992C27.9188 12.188 27.4688 10.97 27.4688 9.338V9.212C27.4928 7.688 27.9608 6.518 28.8728 5.702C29.7968 4.874 31.0388 4.46 32.5988 4.46C33.7268 4.46 34.6748 4.682 35.4428 5.126C36.2228 5.558 36.7988 6.146 37.1708 6.89C37.5428 7.622 37.7288 8.444 37.7288 9.356V9.896C37.7288 10.028 37.6808 10.142 37.5848 10.238C37.4888 10.334 37.3748 10.382 37.2428 10.382H31.8788V10.472C31.8788 10.844 31.9328 11.12 32.0408 11.3C32.1488 11.48 32.3288 11.57 32.5808 11.57C32.6768 11.57 32.7548 11.552 32.8148 11.516C32.8748 11.468 32.9708 11.378 33.1028 11.246C33.2108 11.138 33.3008 11.072 33.3728 11.048C33.4448 11.012 33.5528 10.994 33.6968 10.994H37.0988C37.2068 10.994 37.2968 11.03 37.3688 11.102C37.4528 11.162 37.4948 11.246 37.4948 11.354C37.4948 11.69 37.3088 12.086 36.9368 12.542C36.5648 12.986 36.0068 13.37 35.2628 13.694C34.5308 14.018 33.6488 14.18 32.6168 14.18ZM33.3188 8.132V8.114C33.3188 7.358 33.0788 6.98 32.5988 6.98C32.1188 6.98 31.8788 7.358 31.8788 8.114V8.132H33.3188ZM39.4217 14C39.2897 14 39.1757 13.952 39.0797 13.856C38.9837 13.76 38.9357 13.646 38.9357 13.514V10.382C38.9357 10.25 38.9837 10.136 39.0797 10.04C39.1757 9.944 39.2897 9.896 39.4217 9.896H42.5537C42.6857 9.896 42.7997 9.944 42.8957 10.04C42.9917 10.136 43.0397 10.25 43.0397 10.382V13.514C43.0397 13.646 42.9917 13.76 42.8957 13.856C42.7997 13.952 42.6857 14 42.5537 14H39.4217Z" fill="white"/>
</svg>
