<svg width="63" height="17" viewBox="0 0 63 17" fill="none" xmlns="http://www.w3.org/2000/svg">
<g clip-path="url(#clip0)">
<path fill-rule="evenodd" clip-rule="evenodd" d="M9.44674 9.03413C9.44674 8.85051 9.35051 8.68169 9.19232 8.59063L4.97765 6.15864C4.90633 6.11668 4.82646 6.09482 4.7455 6.09153H4.70193C4.62152 6.09482 4.54151 6.11668 4.46931 6.15864L0.254983 8.59103C0.0978278 8.6822 0.00012207 8.85098 0.00012207 9.03434L0.00936467 15.5832C0.00936467 15.6743 0.0565004 15.759 0.136383 15.8036C0.21468 15.8506 0.311331 15.8506 0.389364 15.8036L2.89396 14.3656C3.05241 14.2712 3.14892 14.1048 3.14892 13.9228V10.8633C3.14892 10.6809 3.24531 10.5121 3.4031 10.4214L4.46956 9.8055C4.54903 9.75944 4.6359 9.73694 4.72463 9.73694C4.81153 9.73694 4.90063 9.75944 4.9779 9.8055L6.04409 10.4214C6.20187 10.5121 6.29865 10.6809 6.29865 10.8633V13.9228C6.29865 14.1048 6.39633 14.2723 6.55374 14.3656L9.0578 15.8036C9.13636 15.8506 9.23431 15.8506 9.31222 15.8036C9.38987 15.759 9.43871 15.6743 9.43871 15.5832L9.44689 9.03467" fill="white"/>
<path fill-rule="evenodd" clip-rule="evenodd" d="M31.5605 12.444C31.5605 12.4895 31.5362 12.5317 31.4967 12.5544L30.0494 13.3912C30.01 13.4138 29.9616 13.4138 29.9222 13.3912L28.4746 12.5544C28.4352 12.5318 28.4109 12.4896 28.4109 12.444V10.768C28.4109 10.7226 28.4352 10.6803 28.4744 10.6574L29.9221 9.81916C29.9616 9.79625 30.01 9.79625 30.0495 9.81916L31.4971 10.6574C31.5364 10.6803 31.5607 10.7226 31.5607 10.768V12.444L31.5605 12.444ZM31.9516 0.0321958C31.8728 -0.0118971 31.7765 -0.0108464 31.6986 0.034975C31.6209 0.0807625 31.5731 0.164576 31.5731 0.254999V6.74049C31.5731 6.80417 31.539 6.86321 31.4841 6.89513C31.429 6.92716 31.361 6.92716 31.3058 6.89513L30.2502 6.28536C30.0928 6.19439 29.899 6.19453 29.7416 6.28546L25.5256 8.72531C25.3679 8.81651 25.271 8.98492 25.271 9.16736V14.0477C25.271 14.23 25.3679 14.3986 25.5254 14.4899L29.7414 16.9318C29.8991 17.023 30.0932 17.023 30.2508 16.9318L34.4672 14.4903C34.6247 14.3989 34.7217 14.2304 34.7217 14.0481V1.8824C34.7217 1.69732 34.6217 1.52681 34.4604 1.43653L31.9514 0.0328061" fill="white"/>
<path fill-rule="evenodd" clip-rule="evenodd" d="M47.0377 10.7243C47.1946 10.633 47.2909 10.4648 47.2909 10.2829V9.10029C47.2909 8.91839 47.1946 8.75012 47.0374 8.65878L42.8484 6.21991C42.6906 6.12817 42.4962 6.12803 42.338 6.21923L38.1234 8.65905C37.9658 8.75025 37.8688 8.91866 37.8688 9.1011V13.9801C37.8688 14.1636 37.9672 14.3329 38.1261 14.4236L42.3107 16.8166C42.4651 16.9051 42.6544 16.906 42.8099 16.8194L45.3433 15.4075C45.4237 15.3628 45.4738 15.2782 45.4741 15.1862C45.4748 15.0941 45.4258 15.0089 45.3463 14.9631L41.105 12.5221C41.0255 12.4767 40.9769 12.3921 40.9769 12.3008V10.7716C40.9769 10.6804 41.0255 10.5961 41.1043 10.5506L42.4246 9.78746C42.503 9.74195 42.6 9.74195 42.6787 9.78746L43.9994 10.5506C44.0781 10.5961 44.1268 10.6804 44.1268 10.7716V11.9747C44.1268 12.066 44.1755 12.1505 44.2542 12.196C44.3333 12.2417 44.4303 12.2413 44.5091 12.1955L47.0337 10.7241" fill="white"/>
<path fill-rule="evenodd" clip-rule="evenodd" d="M17.1135 6.19368C17.2709 6.10248 17.465 6.10248 17.6224 6.19368L21.8381 8.63296C21.9957 8.72406 22.0928 8.89257 22.0928 9.07514V13.9572C22.0928 14.1396 21.9957 14.3081 21.8383 14.3994L17.623 16.8407C17.4653 16.932 17.2713 16.932 17.1136 16.8407L12.8989 14.3995C12.7414 14.3082 12.6443 14.1398 12.6443 13.9573V9.0749C12.6443 8.8926 12.7414 8.72409 12.899 8.63299L17.114 6.19371" fill="white"/>
<path d="M55.221 16.9105C55.0757 16.9105 54.9313 16.8724 54.8042 16.7986L53.4769 16.0112C53.2788 15.9 53.3755 15.8607 53.4407 15.8378C53.7054 15.7458 53.7588 15.7246 54.041 15.5641C54.0704 15.5476 54.1093 15.5538 54.1397 15.5717L55.1591 16.1787C55.1963 16.1992 55.2484 16.1992 55.2825 16.1787L59.2575 13.8781C59.2947 13.857 59.3184 13.8142 59.3184 13.7702V9.17048C59.3184 9.12548 59.2947 9.08338 59.2569 9.06061L55.2832 6.76195C55.2464 6.74049 55.1977 6.74049 55.1605 6.76195L51.1878 9.06129C51.1493 9.08338 51.125 9.1268 51.125 9.17048V13.7702C51.125 13.8142 51.1493 13.8559 51.1875 13.8768L52.2766 14.5076C52.8674 14.8038 53.2294 14.455 53.2294 14.1045V9.56307C53.2294 9.49888 53.2808 9.44818 53.3447 9.44818H53.849C53.9119 9.44818 53.9639 9.49888 53.9639 9.56307V14.1045C53.9639 14.8952 53.5347 15.3486 52.787 15.3486C52.5571 15.3486 52.3763 15.3486 51.8713 15.099L50.8289 14.4973C50.5713 14.3481 50.4121 14.069 50.4121 13.7703V9.1705C50.4121 8.87157 50.5713 8.59265 50.8289 8.44397L54.8042 6.1408C55.0557 5.99808 55.39 5.99808 55.6395 6.1408L59.6145 8.44397C59.872 8.59329 60.0319 8.87157 60.0319 9.1705V13.7703C60.0319 14.0691 59.872 14.3471 59.6145 14.4973L55.6428 16.7988C55.5157 16.8725 55.3718 16.9106 55.2244 16.9106" fill="white"/>
<path d="M56.4479 13.7414C54.7082 13.7414 54.3438 12.9408 54.3438 12.2692C54.3438 12.2054 54.3952 12.1544 54.4587 12.1544H54.9729C55.0303 12.1544 55.078 12.1957 55.0871 12.252C55.1645 12.7767 55.396 13.0414 56.4479 13.0414C57.2852 13.0414 57.6418 12.8515 57.6418 12.406C57.6418 12.1491 57.5407 11.9585 56.2394 11.8308C55.1517 11.7228 54.479 11.4819 54.479 10.6094C54.479 9.8052 55.155 9.32556 56.2884 9.32556C57.562 9.32556 58.1921 9.7688 58.2718 10.7196C58.2749 10.7524 58.2634 10.7838 58.2418 10.8083C58.2198 10.8312 58.1894 10.8451 58.1576 10.8451H57.6415C57.5881 10.8451 57.5407 10.807 57.5299 10.7551C57.4062 10.203 57.105 10.0265 56.2884 10.0265C55.3741 10.0265 55.2679 10.346 55.2679 10.5852C55.2679 10.8752 55.3933 10.9596 56.6278 11.1234C57.8493 11.2853 58.4297 11.5146 58.4297 12.3755C58.4297 13.244 57.7074 13.7414 56.4479 13.7414" fill="white"/>
<path d="M61.9305 6.15132V6.26943H61.5959V7.14359H61.461V6.26943H61.1277V6.15132H61.9305Z" fill="white"/>
<path d="M62.0488 6.15132H62.2412L62.5251 6.99003L62.808 6.15132H62.999V7.14359H62.8709V6.55801C62.8709 6.53751 62.8712 6.50416 62.8719 6.4578C62.8732 6.41015 62.8739 6.35985 62.8739 6.30651L62.591 7.14359H62.4582L62.1729 6.30651V6.33626C62.1729 6.36077 62.1729 6.39784 62.1746 6.44814C62.1756 6.49752 62.1769 6.53419 62.1769 6.55801V7.14359H62.0488V6.15132Z" fill="white"/>
<path fill-rule="evenodd" clip-rule="evenodd" d="M42.5286 10.4959C42.5591 10.4782 42.5962 10.4782 42.6263 10.4959L43.4355 10.9639C43.4656 10.9813 43.4842 11.0136 43.4842 11.0487V11.9854C43.4842 12.0204 43.4656 12.0527 43.4355 12.0702L42.6263 12.5382C42.5962 12.5558 42.5591 12.5558 42.5286 12.5382L41.7205 12.0702C41.69 12.0527 41.6714 12.0204 41.6714 11.9854V11.0487C41.6714 11.0136 41.69 10.9813 41.7205 10.9639L42.5286 10.4959Z" fill="white"/>
</g>
<defs>
<clipPath id="clip0">
<rect width="63" height="17" fill="white"/>
</clipPath>
</defs>
</svg>
