<svg width="29" height="21" viewBox="0 0 29 21" fill="none" xmlns="http://www.w3.org/2000/svg">
<path d="M28.2001 12.4562C28.2001 11.1848 26.4775 9.97994 23.8366 9.23274C24.446 6.74471 24.1751 4.76524 22.9816 4.1315C22.7065 3.98285 22.3849 3.91243 22.0336 3.91243V4.7848C22.2283 4.7848 22.3849 4.82001 22.5161 4.88652C23.0917 5.19165 23.3414 6.35351 23.1467 7.8479C23.1001 8.21562 23.0239 8.60291 22.9308 8.99802C22.1013 8.81025 21.1956 8.6655 20.2433 8.57162C19.6719 7.8479 19.0794 7.19068 18.4827 6.61562C19.8624 5.43028 21.1575 4.78089 22.0378 4.78089V3.90852C20.8739 3.90852 19.3503 4.67527 17.8097 6.00535C16.2692 4.68309 14.7455 3.92417 13.5816 3.92417V4.79654C14.4577 4.79654 15.757 5.44202 17.1368 6.61953C16.5443 7.19459 15.9517 7.8479 15.3888 8.57162C14.4323 8.6655 13.5266 8.81025 12.6971 9.00194C12.5997 8.61074 12.5278 8.23127 12.477 7.86746C12.2781 6.37307 12.5235 5.21121 13.0949 4.90216C13.2219 4.83175 13.3869 4.80045 13.5816 4.80045V3.92808C13.2261 3.92808 12.9044 3.99849 12.6251 4.14715C11.4358 4.78089 11.1692 6.75645 11.7829 9.23666C9.15037 9.98776 7.43628 11.1887 7.43628 12.4562C7.43628 13.7276 9.15884 14.9325 11.7998 15.6797C11.1904 18.1677 11.4612 20.1472 12.6547 20.781C12.9298 20.9296 13.2515 21 13.607 21C14.7709 21 16.2945 20.2333 17.8351 18.9032C19.3757 20.2255 20.8993 20.9844 22.0632 20.9844C22.4187 20.9844 22.7404 20.914 23.0197 20.7653C24.209 20.1316 24.4756 18.156 23.8619 15.6758C26.486 14.9286 28.2001 13.7237 28.2001 12.4562ZM22.6896 9.84693C22.533 10.3516 22.3383 10.8719 22.1182 11.3922C21.9447 11.0792 21.7627 10.7662 21.5638 10.4533C21.3691 10.1403 21.1617 9.83519 20.9543 9.53788C21.5553 9.62003 22.1352 9.72174 22.6896 9.84693ZM20.7512 14.0132C20.4211 14.5413 20.0825 15.0421 19.7312 15.5076C19.1006 15.5584 18.4615 15.5858 17.8182 15.5858C17.1791 15.5858 16.54 15.5584 15.9136 15.5115C15.5624 15.046 15.2195 14.5491 14.8894 14.0249C14.5678 13.5125 14.2757 12.9922 14.0091 12.468C14.2715 11.9438 14.5678 11.4195 14.8852 10.9071C15.2153 10.379 15.5539 9.87822 15.9052 9.4127C16.5358 9.36184 17.1749 9.33446 17.8182 9.33446C18.4573 9.33446 19.0963 9.36184 19.7227 9.40878C20.074 9.87431 20.4168 10.3711 20.747 10.8953C21.0686 11.4078 21.3606 11.9281 21.6273 12.4523C21.3606 12.9765 21.0686 13.5007 20.7512 14.0132ZM22.1182 13.5046C22.3468 14.0288 22.5415 14.5531 22.7023 15.0616C22.1479 15.1868 21.5638 15.2924 20.9586 15.3746C21.166 15.0734 21.3733 14.7643 21.568 14.4474C21.7627 14.1345 21.9447 13.8176 22.1182 13.5046ZM17.8266 17.6787C17.433 17.3032 17.0394 16.8846 16.6501 16.4269C17.031 16.4426 17.4203 16.4543 17.814 16.4543C18.2118 16.4543 18.6054 16.4465 18.9905 16.4269C18.6096 16.8846 18.216 17.3032 17.8266 17.6787ZM14.6778 15.3746C14.0768 15.2924 13.497 15.1907 12.9425 15.0655C13.0991 14.5609 13.2938 14.0406 13.5139 13.5203C13.6874 13.8333 13.8694 14.1462 14.0683 14.4592C14.2673 14.7721 14.4704 15.0773 14.6778 15.3746ZM17.8055 7.23371C18.1991 7.60927 18.5927 8.02785 18.9821 8.48555C18.6012 8.4699 18.2118 8.45817 17.8182 8.45817C17.4203 8.45817 17.0267 8.46599 16.6416 8.48555C17.0225 8.02785 17.4161 7.60927 17.8055 7.23371ZM14.6736 9.53788C14.4662 9.8391 14.2588 10.1482 14.0641 10.465C13.8694 10.778 13.6874 11.0909 13.5139 11.4039C13.2854 10.8797 13.0907 10.3555 12.9298 9.84693C13.4843 9.72566 14.0683 9.62003 14.6736 9.53788ZM10.8433 14.4357C9.34506 13.845 8.37586 13.0704 8.37586 12.4562C8.37586 11.842 9.34506 11.0636 10.8433 10.4768C11.2073 10.332 11.6051 10.2029 12.0157 10.0816C12.2569 10.8484 12.5743 11.6464 12.9679 12.4641C12.5786 13.2777 12.2654 14.0719 12.0284 14.8347C11.6094 14.7134 11.2115 14.5804 10.8433 14.4357ZM13.1203 20.0259C12.5447 19.7208 12.295 18.5589 12.4897 17.0646C12.5362 16.6968 12.6124 16.3095 12.7055 15.9144C13.5351 16.1022 14.4408 16.247 15.3931 16.3408C15.9644 17.0646 16.5569 17.7218 17.1537 18.2968C15.774 19.4822 14.4789 20.1316 13.5986 20.1316C13.4081 20.1277 13.2473 20.0924 13.1203 20.0259ZM23.1594 17.045C23.3583 18.5394 23.1128 19.7012 22.5415 20.0103C22.4145 20.0807 22.2494 20.112 22.0547 20.112C21.1787 20.112 19.8793 19.4665 18.4996 18.289C19.0921 17.714 19.6846 17.0606 20.2475 16.3369C21.204 16.243 22.1098 16.0983 22.9393 15.9066C23.0366 16.3017 23.1128 16.6812 23.1594 17.045ZM24.7888 14.4357C24.4248 14.5804 24.027 14.7095 23.6165 14.8308C23.3752 14.0641 23.0578 13.266 22.6642 12.4484C23.0536 11.6347 23.3668 10.8406 23.6038 10.0777C24.0228 10.199 24.4206 10.332 24.7931 10.4768C26.2913 11.0675 27.2605 11.842 27.2605 12.4562C27.2563 13.0704 26.2871 13.8489 24.7888 14.4357Z" fill="white"/>
<path d="M17.8139 14.244C18.8821 14.244 19.748 13.4436 19.748 12.4562C19.748 11.4689 18.8821 10.6684 17.8139 10.6684C16.7457 10.6684 15.8797 11.4689 15.8797 12.4562C15.8797 13.4436 16.7457 14.244 17.8139 14.244Z" fill="white"/>
</svg>
