<svg width="11" height="9" viewBox="0 0 11 9" fill="none" xmlns="http://www.w3.org/2000/svg">
<path d="M3.47304 8.9628C7.59657 8.9628 9.85157 5.52895 9.85157 2.55124C9.85157 2.45371 9.84959 2.35662 9.84524 2.25996C10.283 1.94188 10.6634 1.54495 10.9635 1.09309C10.5618 1.27255 10.1296 1.39337 9.6761 1.44785C10.1389 1.16887 10.4943 0.72756 10.6619 0.201469C10.2288 0.459579 9.7491 0.647176 9.23837 0.748458C8.82928 0.310454 8.24687 0.036499 7.60197 0.036499C6.36396 0.036499 5.36003 1.04567 5.36003 2.28961C5.36003 2.46644 5.37969 2.63845 5.41816 2.80343C3.55494 2.70919 1.90278 1.81251 0.797059 0.449034C0.60453 0.782048 0.493514 1.16888 0.493514 1.58164C0.493514 2.36344 0.889294 3.05361 1.49114 3.45738C1.12334 3.44596 0.777827 3.34447 0.475841 3.17554C0.475511 3.185 0.475509 3.19422 0.475509 3.20432C0.475509 4.29564 1.24826 5.20681 2.27405 5.41328C2.08567 5.4649 1.88747 5.49258 1.68291 5.49258C1.53867 5.49258 1.39815 5.47831 1.26157 5.45194C1.54698 6.3473 2.37459 6.99885 3.35579 7.01706C2.5885 7.62158 1.62193 7.98163 0.57143 7.98163C0.3907 7.98163 0.212158 7.97129 0.0366821 7.95043C1.02885 8.58967 2.20695 8.96266 3.47316 8.96266" fill="white"/>
</svg>
